<?xml version="1.0" encoding="UTF-8"?><svg version="1.1" width="120px" height="120px" viewBox="0 0 120.0 120.0" xmlns="http://www.w3.org/2000/svg" xmlns:xlink="http://www.w3.org/1999/xlink"><defs><clipPath id="i0"><path d="M120,0 L120,120 L0,120 L0,0 L120,0 Z"></path></clipPath><clipPath id="i1"><path d="M107.722148,3.20559245 C111.63326,5.29727756 114.702722,8.36674045 116.794408,12.2778516 C118.886093,16.1889627 120,20.0683975 120,30.7666224 L120,89.2333776 C120,99.9316025 118.886093,103.811037 116.794408,107.722148 C114.702722,111.63326 111.63326,114.702722 107.722148,116.794408 C103.811037,118.886093 99.9316025,120 89.2333776,120 L30.7666224,120 C20.0683975,120 16.1889627,118.886093 12.2778516,116.794408 C8.36674045,114.702722 5.29727756,111.63326 3.20559245,107.722148 C1.14935962,103.877327 0.0380404605,100.063118 0.000959326263,89.7715119 L8.28672246e-16,30.7666224 C-4.81482439e-16,20.0683975 1.11390733,16.1889627 3.20559245,12.2778516 C5.29727756,8.36674045 8.36674045,5.29727756 12.2778516,3.20559245 C16.1226726,1.14935962 19.9368822,0.0380404605 30.2284881,0.000959326263 L89.2333776,1.24300837e-15 C99.9316025,-7.22223659e-16 103.811037,1.11390733 107.722148,3.20559245 Z"></path></clipPath><clipPath id="i2"><path d="M59.944387,0 C62.7058108,0 64.944387,2.23857625 64.944387,5 L64.9440552,7.26079556 C64.944019,7.507639 64.9439829,7.75303043 64.9439471,7.99696983 L64.9430322,14.2304928 C64.9430002,14.4482959 64.9429684,14.6646469 64.9429369,14.8795459 L64.9420545,20.8909098 C64.9420273,21.0767684 64.9420002,21.261175 64.9419733,21.4441295 L64.9410341,27.8431828 C64.9410128,27.9883849 64.9409917,28.1321349 64.9409708,28.2744329 L64.9406735,30.3000011 C64.9398482,35.9222236 64.4017703,38.403661 59.944387,42.9376788 C59.1484257,43.7473249 58.156251,44.7460852 57.0463455,45.8577783 L55.6629709,47.2411422 C51.3734519,51.5246034 45.9649944,56.8767493 43.0992794,59.7432588 L42.645832,60.1973858 C42.3600668,60.4839811 42.108205,60.7374517 41.8952693,60.952922 C38.9141704,63.9695066 35.243143,65.0803283 29.7188623,65.0811391 L23.0000548,65.0819728 C22.8385451,65.0819913 22.6755817,65.0820099 22.5112171,65.0820286 L14.3461199,65.0829551 C14.1515274,65.0829776 13.9563209,65.0830002 13.760553,65.0830229 L5.95622205,65.0839719 C5.75472437,65.0839979 5.55334745,65.0840239 5.35214377,65.0840501 L0,65.084788 L0,0 L59.944387,0 Z"></path></clipPath><linearGradient id="i3" x1="54.3187687px" y1="24.7316973px" x2="0.868102798px" y2="24.7316973px" gradientUnits="userSpaceOnUse"><stop stop-color="#FFE5D3" offset="0%"></stop><stop stop-color="#FF982F" offset="100%"></stop></linearGradient><clipPath id="i4"><path d="M25.4548743,0 C24.4538581,1.18807141 23.9391613,2.39515869 23.9107838,3.62126183 L23.9155718,18.3884322 C23.9155718,21.1498559 21.6769956,23.3884322 18.9155718,23.3884322 L4.75043401,23.3836442 C2.46492823,23.5753306 0.881450227,24.3730653 0,25.7768482 C0.54816917,24.6057747 1.88871779,22.9115185 4.02164586,20.6940796 L20.7081182,3.62126183 C22.2036362,2.04875749 23.7858882,0.84173816 25.4548743,0 Z"></path></clipPath><linearGradient id="i5" x1="12.1451629px" y1="11.1363473px" x2="23.7560935px" y2="22.2459665px" gradientUnits="userSpaceOnUse"><stop stop-color="#CD5000" offset="0%"></stop><stop stop-color="#FFBC8B" offset="56.7710111%"></stop><stop stop-color="#FFB471" offset="100%"></stop></linearGradient><clipPath id="i6"><path d="M43.1418629,0 C45.8249379,0 48,1.790861 48,4 C48,6.209139 45.8249379,8 43.1418629,8 L4.85813713,8 C2.17506208,8 0,6.209139 0,4 C0,1.790861 2.17506208,0 4.85813713,0 L43.1418629,0 Z"></path></clipPath><linearGradient id="i7" x1="46.511928px" y1="4px" x2="0px" y2="4px" gradientUnits="userSpaceOnUse"><stop stop-color="#FFFFFF" offset="0%"></stop><stop stop-color="#FF982F" offset="100%"></stop></linearGradient><clipPath id="i8"><path d="M42.3445129,0 C44.4155808,0 46.0945129,1.67893219 46.0945129,3.75 C46.0945129,5.82106781 44.4155808,7.5 42.3445129,7.5 L3.75,7.5 C1.67893219,7.5 0,5.82106781 0,3.75 C0,1.67893219 1.67893219,0 3.75,0 L42.3445129,0 Z"></path></clipPath><linearGradient id="i9" x1="44.6655139px" y1="3.75px" x2="0px" y2="3.75px" gradientUnits="userSpaceOnUse"><stop stop-color="#FFFFFF" offset="0%"></stop><stop stop-color="#FF982F" offset="100%"></stop></linearGradient></defs><g clip-path="url(#i0)"><g clip-path="url(#i1)"><polygon points="0,0 120,0 120,120 0,120 0,0" stroke="none" fill="#FF982F"></polygon></g><g transform="translate(30.256489598473877 25.0)"><g clip-path="url(#i2)"><polygon points="0,0 64.944387,0 64.944387,65.084788 0,65.084788 0,0" stroke="none" fill="url(#i3)"></polygon></g></g><g transform="translate(94.19072063554042 88.64765302516376) rotate(-180.0)"><g clip-path="url(#i4)"><polygon points="0,0 25.4548743,0 25.4548743,25.7768482 0,25.7768482 0,0" stroke="none" fill="url(#i5)"></polygon></g></g><g transform="translate(29.0 41.0)"><g clip-path="url(#i6)"><polygon points="0,0 48,0 48,8 0,8 0,0" stroke="none" fill="url(#i7)"></polygon></g></g><g transform="translate(15.827140808105469 62.79847145080565)"><g clip-path="url(#i8)"><polygon points="0,0 46.0945129,0 46.0945129,7.5 0,7.5 0,0" stroke="none" fill="url(#i9)"></polygon></g></g></g></svg>